HIERARCHY
ROOT Hips
{
	OFFSET 0.000000 8.830580 0.000000
	CHANNELS 6 Xposition Yposition Zposition Zrotation Yrotation Xrotation 
	JOINT Spine
	{
		OFFSET 0.000000 0.010000 0.000000
		CHANNELS 3 Zrotation Yrotation Xrotation
		JOINT Spine1
		{
			OFFSET 0.000000 2.459130 0.000000
			CHANNELS 3 Zrotation Yrotation Xrotation
			JOINT Neck
			{
				OFFSET 0.000000 2.484630 0.000000
				CHANNELS 3 Zrotation Yrotation Xrotation
				JOINT Head_virtual
				{
					OFFSET 0.000000 0.000000 0.000000
					CHANNELS 3 Zrotation Yrotation Xrotation
					JOINT Head
					{
						OFFSET 0.000000 0.927525 0.000000
						CHANNELS 3 Zrotation Yrotation Xrotation
						End Site
						{
							OFFSET 0.000000 0.000000 0.000000
						}
					}
				}
				JOINT LeftUpArm_virtual
				{
					OFFSET 0.000000 0.000000 0.000000
					CHANNELS 3 Zrotation Yrotation Xrotation
					JOINT LeftUpArm
					{
						OFFSET 1.248820 0.000000 0.000000
						CHANNELS 3 Zrotation Yrotation Xrotation
						JOINT LeftForeArm
						{
							OFFSET 2.597580 0.000000 0.000000
							CHANNELS 3 Zrotation Yrotation Xrotation
							JOINT LeftHand
							{
								OFFSET 2.455420 0.000000 0.000000
								CHANNELS 3 Zrotation Yrotation Xrotation
								End Site
								{
									OFFSET 0.000000 0.000000 0.000000
								}
							}
						}
					}
				}
				JOINT RightUpArm_virtual
				{
					OFFSET -0.000000 -0.000000 -0.000000
					CHANNELS 3 Zrotation Yrotation Xrotation
					JOINT RightUpArm
					{
						OFFSET -1.248820 -0.000000 -0.000000
						CHANNELS 3 Zrotation Yrotation Xrotation
						JOINT RightForeArm
						{
							OFFSET -2.597580 -0.000000 -0.000000
							CHANNELS 3 Zrotation Yrotation Xrotation
							JOINT RightHand
							{
								OFFSET -2.455420 -0.000000 -0.000000
								CHANNELS 3 Zrotation Yrotation Xrotation
								End Site
								{
									OFFSET 0.000000 0.000000 0.000000
								}
							}
						}
					}
				}
			}
		}
	}
	JOINT LeftUpLeg
	{
		OFFSET 1.271939 0.000000 0.000000
		CHANNELS 3 Zrotation Yrotation Xrotation
		JOINT LeftLowLeg
		{
			OFFSET 0.000000 -4.342910 0.000000
			CHANNELS 3 Zrotation Yrotation Xrotation
			JOINT LeftFoot
			{
				OFFSET 0.000000 -4.487670 0.000000
				CHANNELS 3 Zrotation Yrotation Xrotation
				JOINT LeftToeBase
				{
					OFFSET 0.000000 0.000000 1.515070
					CHANNELS 3 Zrotation Yrotation Xrotation
					End Site
					{
						OFFSET 0.000000 0.000000 0.000000
					}
				}
			}
		}
	}
	JOINT RightUpLeg
	{
		OFFSET -1.271939 0.000000 0.000000
		CHANNELS 3 Zrotation Yrotation Xrotation
		JOINT RightLowLeg
		{
			OFFSET 0.000000 -4.342910 0.000000
			CHANNELS 3 Zrotation Yrotation Xrotation
			JOINT RightFoot
			{
				OFFSET 0.000000 -4.487670 0.000000
				CHANNELS 3 Zrotation Yrotation Xrotation
				JOINT RightToeBase
				{
					OFFSET 0.000000 0.000000 1.515070
					CHANNELS 3 Zrotation Yrotation Xrotation
					End Site
					{
						OFFSET 0.000000 0.000000 0.000000
					}
				}
			}
		}
	}
}
MOTION
Frames: 8
Frame Time: 0.041667
-17.671658 8.689445 37.840738 166.082185 36.134147 170.016569 -0.351839 6.892710 -13.594115 -9.909387 6.225999 16.199553 0.000000 0.000000 0.000000 4.408769 27.973111 6.351146 -15.215467 -24.734657 -72.827698 -23.280701 3.599500 4.733460 -38.625301 -13.919000 -48.382401 0.000000 -37.405998 0.000000 -1.194330 26.186899 -84.399696 26.770500 -6.084010 0.566261 48.253899 9.756660 -50.919102 0.000000 48.141998 0.000000 8.084600 -11.199700 -93.134201 -19.818010 -0.903374 -4.984711 0.000000 0.000000 11.336400 -2.547765 13.895752 3.977689 0.000000 0.000000 -23.752780 -13.851407 -9.566233 -13.712429 0.000000 0.000000 72.674797 46.148184 14.722936 26.699804 0.000000 0.000000 -25.932500 
-17.651072 8.688646 37.789891 165.875170 36.330397 170.151785 -0.123891 7.146482 -13.646845 -10.258255 6.270734 16.364436 0.000000 0.000000 0.000000 3.968551 27.391330 5.283980 -15.909361 -24.991878 -72.527425 -23.635099 3.607950 5.292960 -37.513199 -15.088500 -50.574402 0.000000 -33.713799 0.000000 -2.466400 25.799000 -83.939796 26.657000 -5.684580 0.586608 48.004700 10.827700 -51.884399 0.000000 45.102001 0.000000 8.286640 -12.206900 -93.770401 -20.045072 -0.869644 -4.931130 0.000000 0.000000 11.345700 -2.540919 14.051758 3.703777 0.000000 0.000000 -23.712440 -14.157282 -9.053880 -16.222187 0.000000 0.000000 75.366402 43.915258 14.451869 23.842374 0.000000 0.000000 -27.365300 
-17.625881 8.694559 37.746538 166.119352 36.187960 170.858593 0.077015 7.234707 -13.793360 -10.289328 6.172947 16.191540 0.000000 0.000000 0.000000 3.552590 27.107978 4.615975 -15.980130 -25.392897 -72.689634 -23.775000 3.747220 5.118290 -37.485001 -15.793000 -52.321301 0.000000 -31.126200 0.000000 -2.121170 26.178699 -78.723396 26.531000 -5.489100 0.649357 48.049500 11.466500 -52.800800 0.000000 42.932499 0.000000 8.492110 -12.605200 -92.807602 -19.943083 -1.092982 -5.348366 0.000000 0.000000 11.810400 -2.684544 14.053625 3.274924 0.000000 0.000000 -23.510380 -13.917092 -8.695673 -18.685289 0.000000 0.000000 77.014000 41.274324 13.435351 19.117194 0.000000 0.000000 -27.417500 
-17.597910 8.705140 37.710911 166.693178 35.913923 171.773437 0.251465 7.188237 -13.796051 -10.023190 5.957422 15.695031 0.000000 0.000000 0.000000 3.285745 27.005387 4.328822 -15.790268 -25.701567 -72.888740 -23.786301 4.064220 4.859940 -38.244801 -16.093300 -53.511101 0.000000 -30.011400 0.000000 -1.934270 26.222200 -77.880302 26.488199 -5.463140 0.735055 48.218498 11.621500 -53.017502 0.000000 41.805099 0.000000 8.609040 -12.028100 -91.658501 -19.570853 -1.168777 -5.942371 0.000000 0.000000 12.607900 -2.432236 13.919523 3.001518 0.000000 0.000000 -23.647100 -13.297255 -8.373356 -20.835157 0.000000 0.000000 77.464798 38.901109 10.761804 14.153828 0.000000 0.000000 -26.720200 
-17.562869 8.718634 37.678699 167.561731 35.333702 172.671170 0.305885 6.944098 -13.598344 -9.278152 5.751117 15.142429 0.000000 0.000000 0.000000 3.260489 26.851294 4.328843 -15.559072 -26.052555 -73.346953 -23.890699 4.118510 4.493530 -39.577999 -15.763900 -54.093498 0.000000 -30.301201 0.000000 -1.562590 26.022600 -78.979500 26.417299 -5.660170 0.648136 48.589001 11.318500 -52.963200 0.000000 41.537300 0.000000 8.354930 -11.621400 -90.284302 -18.965468 -1.676461 -6.305920 0.000000 0.000000 13.429500 -2.289692 13.986312 2.613327 0.000000 0.000000 -23.537070 -12.455690 -7.803097 -22.459844 0.000000 0.000000 76.925499 36.980267 7.061684 9.496839 0.000000 0.000000 -26.141600 
-17.521683 8.735062 37.645302 168.712788 34.454038 173.185234 0.478283 6.582134 -13.164215 -8.410832 5.516028 15.038068 0.000000 0.000000 0.000000 3.131166 26.977859 4.215590 -14.854751 -26.309034 -73.892716 -23.955999 4.029630 5.039350 -40.981602 -15.583500 -54.387699 0.000000 -31.683001 0.000000 -1.388010 25.360500 -81.917999 26.531799 -5.873200 1.264740 48.840599 11.461600 -53.570702 0.000000 41.805801 0.000000 8.154070 -11.018300 -90.370201 -18.155401 -2.254635 -6.052533 0.000000 0.000000 14.166400 -2.192426 14.037212 2.215902 0.000000 0.000000 -23.494340 -11.553842 -7.213722 -22.943038 0.000000 0.000000 75.204399 35.269718 3.266161 4.976003 0.000000 0.000000 -25.667100 
-17.479525 8.748387 37.610813 169.576161 33.725398 174.122764 0.328511 6.109859 -13.346905 -7.325056 5.410875 14.870782 0.000000 0.000000 0.000000 2.996493 26.795854 3.878600 -14.511321 -26.537132 -74.054015 -24.229700 4.167430 4.487350 -42.483200 -14.794100 -53.981300 0.000000 -33.135502 0.000000 -0.876913 25.017599 -81.844200 26.501499 -5.899980 0.492674 49.446301 10.093700 -53.034599 0.000000 42.792999 0.000000 7.768400 -11.019700 -89.917603 -17.500287 -3.170827 -6.205918 0.000000 0.000000 14.529100 -2.451532 14.224211 1.806915 0.000000 0.000000 -23.384220 -10.885079 -6.205462 -23.924856 0.000000 0.000000 72.870499 33.320507 -0.601267 0.723340 0.000000 0.000000 -24.850460 
-17.431547 8.763318 37.573153 170.670889 32.603142 174.365930 0.549872 5.838087 -12.888892 -6.726890 5.200649 14.972871 0.000000 0.000000 0.000000 3.455900 26.570966 3.731956 -14.120654 -26.468069 -74.473238 -24.280399 3.985250 5.252180 -43.517601 -14.582300 -53.688202 0.000000 -34.779499 0.000000 -0.326636 24.543699 -82.059402 26.912901 -6.108260 1.440630 49.643902 10.128000 -53.782299 0.000000 43.657902 0.000000 7.033640 -10.842600 -89.330399 -16.701865 -3.764061 -5.522079 0.000000 0.000000 14.916400 -2.403943 14.100388 1.411950 0.000000 0.000000 -23.315590 -10.294076 -5.088538 -23.486386 0.000000 0.000000 69.488998 32.396402 -3.957807 -2.822938 0.000000 0.000000 -24.422920 
